<svg width="100" height="186" xmlns="http://www.w3.org/2000/svg" viewBox="0 0 100 186">
   <g stroke="null" transform="matrix(1.9047965477373676,0,0,1.9047965477373676,-6.694370650146223e-8,1.849618430078408) ">
    <path stroke="null" id="svg_6" d="m50.011997,0.02l-12.465,-0.02c-14.004,0 -23.054,9.285 -23.054,23.656l0,10.907l-12.533,0c-1.083,0 -1.96,0.878 -1.96,1.961l0,15.803c0,1.083 0.878,1.96 1.96,1.96l12.533,0l0,39.876c0,1.083 0.877,1.96 1.96,1.96l16.352,0c1.083,0 1.96,-0.878 1.96,-1.96l0,-39.876l14.654,0c1.083,0 1.96,-0.877 1.96,-1.96l0.006,-15.803c0,-0.52 -0.207,-1.018 -0.574,-1.386c-0.367,-0.368 -0.867,-0.575 -1.387,-0.575l-14.659,0l0,-9.246c0,-4.444 1.059,-6.7 6.848,-6.7l8.397,-0.003c1.082,0 1.959,-0.878 1.959,-1.96l0,-14.674c0,-1.081 -0.876,-1.958 -1.957,-1.96z"/>
   </g>
</svg>