<svg width="60" height="59" xmlns="http://www.w3.org/2000/svg" viewBox="0 0 59 60">
  <g transform="matrix(1.253460790954962,0,0,1.253460790954962,-0.20388505180131278,-0.7038701071462135) ">
   <path id="svg_5" d="m37.26944,11.05043a2.5,2.5 0 0 1 -3.54,3.54a3.8,3.8 0 0 1 -0.309,-0.38a2.278,2.278 0 0 1 -0.23,-0.441a2.4,2.4 0 0 1 -0.14,-0.46a2.617,2.617 0 0 1 -0.05,-0.489a2.546,2.546 0 0 1 0.729,-1.77a2.863,2.863 0 0 1 0.381,-0.31a2.516,2.516 0 0 1 3.159,0.31zm-13.109,3.44a9.67,9.67 0 1 0 9.67,9.67a9.684,9.684 0 0 0 -9.67,-9.67zm23.5,9.67a23.5,23.5 0 1 1 -23.5,-23.5a23.528,23.528 0 0 1 23.5,23.5zm-3,0a20.5,20.5 0 1 0 -20.5,20.5a20.523,20.523 0 0 0 20.5,-20.5z"/>
 </g>
</svg>