<svg width="142" height="142" viewBox="0 0 142 142" xmlns="http://www.w3.org/2000/svg">
  <g transform="matrix(1.7746638190214743,0,0,1.7746638190214743,-0.00043793907779132724,-0.0004379089563286698) ">
   <path fill-rule="evenodd" clip-rule="evenodd" d="m70.588022,58.828392c0,-1.3114 -0.4574,-2.422 -1.37227,-3.3383l-10.19623,-10.1961c-0.91546,-0.9097 -2.0267,-1.3679 -3.33369,-1.3679c-1.37289,0 -2.54623,0.5207 -3.53136,1.5687c0.10057,0.094 0.40785,0.4079 0.93492,0.9287c0.52141,0.4893 0.86464,0.8343 1.02777,1.0288c0.19578,0.1949 0.44112,0.5085 0.73539,0.9349c0.32692,0.4205 0.53901,0.8473 0.6375,1.274c0.13042,0.3888 0.19578,0.8344 0.19578,1.3237c0,1.3054 -0.45743,2.416 -1.37226,3.332c-0.91546,0.9161 -2.02733,1.374 -3.33243,1.374c-0.48943,0 -0.94749,-0.05 -1.37415,-0.1509c-0.38902,-0.132 -0.80315,-0.3387 -1.22356,-0.6335c-0.42666,-0.3262 -0.73413,-0.571 -0.93491,-0.7341c-0.19453,-0.2011 -0.55215,-0.5584 -1.07922,-1.0795c-0.48942,-0.527 -0.78435,-0.8343 -0.87847,-0.9349c-1.07922,1.0166 -1.61883,2.2089 -1.61883,3.5828c0,1.3051 0.45803,2.4157 1.37415,3.3321l10.09645,10.1458c0.88221,0.8849 1.99345,1.3239 3.33369,1.3239c1.30703,0 2.41824,-0.4264 3.3331,-1.2737l7.20636,-7.1593c0.91487,-0.9161 1.37227,-2.0078 1.37227,-3.2815m-34.45888,-34.56123c0,-1.30699 -0.45806,-2.4182 -1.37415,-3.333l-10.10211,-10.14733c-0.90983,-0.91543 -2.02045,-1.37299 -3.33184,-1.37299c-1.27374,0 -2.38435,0.44123 -3.3318,1.32397l-7.20326,7.15687c-0.91609,0.9148 -1.37415,2.00967 -1.37415,3.28398c0,1.30762 0.45806,2.41851 1.37415,3.33394l10.19623,10.19604c0.87844,0.8849 1.98905,1.324 3.33184,1.324c1.37412,0 2.54749,-0.5082 3.52633,-1.5204c-0.09396,-0.0974 -0.40787,-0.3922 -0.92866,-0.88212c-0.52078,-0.52261 -0.88472,-0.88212 -1.07922,-1.07853c-0.16309,-0.19484 -0.40787,-0.50658 -0.73413,-0.93114c-0.29477,-0.42488 -0.50825,-0.83341 -0.64001,-1.2256c-0.09396,-0.42456 -0.14425,-0.88212 -0.14425,-1.37267c0,-1.30699 0.45803,-2.41852 1.37412,-3.33332c0.90983,-0.91542 2.02045,-1.37267 3.33184,-1.37267c0.48942,0 0.92862,0.066 1.32393,0.19484c0.42041,0.0974 0.84707,0.31112 1.27374,0.63668c0.42667,0.29541 0.73413,0.53958 0.92866,0.73536c0.20081,0.16342 0.53961,0.50721 1.02903,1.02982c0.52707,0.52261 0.83451,0.83309 0.93491,0.93114c1.07922,-1.01285 1.61886,-2.20545 1.61886,-3.57843m39.7534,24.55939c2.74453,2.7419 4.11739,6.0802 4.11739,10.0018c0,3.9216 -1.3892,7.2345 -4.16694,9.9516l-7.20577,7.1528c-2.71254,2.717 -6.02929,4.0724 -9.95092,4.0724c-3.95488,0 -7.28732,-1.3931 -9.99794,-4.1664l-10.10214,-10.1524c-2.71061,-2.7104 -4.06594,-6.0236 -4.06594,-9.9452c0,-4.0219 1.43688,-7.4353 4.31065,-10.2464l-4.31065,-4.3169c-2.81102,2.8799 -6.21187,4.3169 -10.19623,4.3169c-3.92163,0 -7.25347,-1.3742 -10.00173,-4.1224l-10.19623,-10.19314c-2.74201,-2.74503 -4.11616,-6.07897 -4.11616,-10.00057c0,-3.9216 1.38669,-7.23826 4.16634,-9.95092l7.20326,-7.15656c2.7169,-2.71266 6.02988,-4.0693 9.95152,-4.0693c3.95299,0 7.29109,1.38933 10.00173,4.16704l10.09586,10.14733c2.7169,2.71266 4.07219,6.02932 4.07219,9.95092c0,4.01965 -1.43687,7.43467 -4.3169,10.24504l4.3169,4.31256c2.81105,-2.87356 6.20562,-4.31256 10.19501,-4.31256c3.92163,0 7.25469,1.3699 10.00047,4.11796l10.19623,10.1964"/>
  </g>
</svg>