<svg width="21" height="34" viewBox="0 0 21 34" xmlns="http://www.w3.org/2000/svg">
   <path fill="#999" fill-rule="evenodd" clip-rule="evenodd" d="m10.518331,0.115479c-5.737029,0 -10.399681,4.978645 -10.399681,11.094865a11.712807,11.712807 0 0 0 0.842648,4.353681c0.154485,0.37217 0.315993,0.702207 0.463456,0.997133l7.436369,16.024356a1.727428,1.727428 0 0 0 3.314415,0l7.40828,-15.947113a11.34766,11.34766 0 0 0 0.498567,-1.074376a11.937513,11.937513 0 0 0 0.835626,-4.374748c0,-6.095154 -4.662652,-11.073799 -10.399681,-11.073799zm7.61192,14.676119c-0.126397,0.294927 -0.252794,0.575809 -0.428346,0.912869l-7.183574,15.455569l-7.20464,-15.511745a7.724273,7.724273 0 0 1 -0.400258,-0.842648a9.64832,9.64832 0 0 1 -0.702207,-3.595298c0.014044,-4.957579 3.735739,-8.988245 8.307105,-8.988245s8.293061,4.030666 8.293061,8.981223a9.71854,9.71854 0 0 1 -0.68114,3.588276z"/>
   <path fill="#999" fill-rule="evenodd" clip-rule="evenodd" d="m10.518331,5.431183a5.617653,5.617653 0 1 0 5.617653,5.617653a5.617653,5.617653 0 0 0 -5.617653,-5.617653zm0,9.128687a3.511033,3.511033 0 1 1 3.511033,-3.511033a3.511033,3.511033 0 0 1 -3.511033,3.511033z"/>
</svg>