<svg width="60" height="53" xmlns="http://www.w3.org/2000/svg" viewBox="0 0 60 53">
  <path stroke="null" d="m53.151039,1.416971c-2.348038,0.923296 -28.816829,11.63353 -50.376085,20.312512c-1.707664,0.738637 -2.774954,2.21591 -2.774954,3.693184c0,1.477274 1.280748,2.585229 2.774954,2.769888c1.280748,0.184659 14.088227,1.846592 14.088227,1.846592l3.628786,18.46592l0,0l1.921122,-8.125005l-2.774954,-12.187507l26.041875,-16.619328l-21.345799,20.312512l7.47103,7.386368l0,0c0.426916,0.369318 9.60561,9.602279 10.245983,10.156256c1.06729,0.923296 2.774954,2.769888 3.628786,2.769888c1.494206,0 2.988412,-1.846592 3.628786,-4.61648c0.640374,-2.585229 4.909534,-20.497172 10.245983,-44.318209c0.640374,-2.585229 -2.13458,-3.693184 -6.40374,-1.846592z"/>
</svg>