<svg width="115" height="93" xmlns="http://www.w3.org/2000/svg" viewBox="0 0 115 193">
  <path stroke="null" id="svg_4" d="m113.490689,11.346601c-4.147918,1.841431 -8.605873,3.081579 -13.284611,3.640585c4.777387,-2.860795 8.446157,-7.39391 10.17015,-12.796068c-4.46735,2.649406 -9.418545,4.575393 -14.689172,5.613547c-4.213683,-4.495535 -10.231218,-7.304657 -16.882918,-7.304657c-14.933444,0 -25.906871,13.93287 -22.534045,28.396561c-19.21759,-0.962993 -36.260224,-10.17015 -47.670521,-24.164088c-6.059812,10.395631 -3.142647,23.994977 7.154336,30.881554c-3.786208,-0.122136 -7.35633,-1.16029 -10.470791,-2.893678c-0.253667,10.715063 7.426793,20.739589 18.550541,22.970915c-3.255387,0.883135 -6.820812,1.089827 -10.447304,0.394592c2.940653,9.188366 11.48076,15.87295 21.608632,16.060851c-9.723884,7.624089 -21.975039,11.029797 -34.244984,9.582959c10.235915,6.562448 22.397817,10.390934 35.456947,10.390934c42.944807,0 67.207543,-36.269619 65.741914,-68.800005c4.519023,-3.264782 8.441459,-7.33754 11.541828,-11.974001z"/>
</svg>