<svg width="90" height="90" xmlns="http://www.w3.org/2000/svg" viewBox="0 0 90 90">
   <path fill="#808080" d="m79.23913,0l-68.47826,0c-5.967391,0 -10.760869,4.793478 -10.760869,10.760869l0,68.47826c0,5.967391 4.793478,10.760869 10.760869,10.760869l68.47826,0c5.967391,0 10.760869,-4.793478 10.760869,-10.760869l0,-68.47826c0,-5.967391 -4.793478,-10.760869 -10.760869,-10.760869zm-5.673913,63.586956c-0.782609,1.565217 -3.032609,1.76087 -3.326087,1.76087l-7.630435,0.097826c-0.097826,0 -0.293478,0 -0.48913,0c-0.782609,0 -2.25,-0.195652 -3.913043,-1.369565c-1.271739,-0.880435 -2.347826,-2.152174 -3.521739,-3.423913c-1.076087,-1.271739 -2.641304,-3.130435 -3.423913,-2.934783c-0.978261,0.293478 -1.467391,2.836957 -1.369565,4.402174c0,0.195652 0,1.467391 -0.782609,2.152174c-0.782609,0.782609 -1.956522,0.978261 -2.152174,0.978261c0,0 -0.097826,0 -0.097826,0l-3.423913,0c-0.684783,0 -8.315217,0.195652 -15.065217,-6.847826c-7.336956,-7.630435 -13.695652,-22.402174 -13.98913,-23.086956c-0.097826,-0.293478 -0.586957,-1.663043 0.195652,-2.445652c0.684783,-0.782609 2.054348,-0.880435 2.445652,-0.880435l8.315217,-0.097826c0.097826,0 0.097826,0 0.195652,0c0.097826,0 1.076087,0.195652 1.76087,0.684783c0.684783,0.48913 0.978261,1.271739 1.076087,1.369565c0,0 1.369565,3.326087 3.032609,6.358696c3.717391,6.456522 4.793478,6.358696 4.891304,6.26087c0.586957,-0.48913 0.880435,-4.01087 0.684783,-7.532609c0,-0.978261 -0.195652,-2.73913 -0.684783,-3.423913c-0.48913,-0.684783 -1.565217,-0.880435 -1.858696,-0.880435c-0.48913,-0.097826 -0.880435,-0.391304 -0.978261,-0.978261c-0.195652,-0.978261 1.076087,-2.152174 1.956522,-2.543478c1.663043,-0.782609 4.5,-0.880435 7.630435,-0.880435c2.445652,0 3.228261,0.195652 4.304348,0.391304c2.934783,0.684783 2.836957,3.130435 2.73913,6.847826c0,1.076087 -0.097826,2.347826 -0.097826,3.815217c0,0.293478 0,0.684783 0,1.076087c0,1.369565 -0.097826,3.326087 0.586957,3.913043c0.293478,-0.097826 1.663043,-0.782609 4.793478,-6.163043c1.76087,-3.032609 3.130435,-6.554348 3.130435,-6.652174c0.097826,-0.195652 0.48913,-0.978261 1.173913,-1.467391c0.684783,-0.391304 1.369565,-0.391304 1.663043,-0.293478l8.608696,-0.097826c0.684783,-0.097826 3.423913,-0.293478 4.01087,1.467391c0.391304,1.076087 0.195652,3.228261 -4.695652,9.782609c-0.782609,0.978261 -1.369565,1.858696 -1.956522,2.641304c-1.663043,2.152174 -2.73913,3.521739 -2.73913,4.304348c0,0.684783 1.076087,1.663043 2.73913,3.228261l0.097826,0.097826c2.054348,1.858696 4.695652,4.597826 5.869565,6.847826c0.684783,1.565217 0.782609,2.641304 0.293478,3.521739z"/>
</svg>