<svg width="89" height="89" xmlns="http://www.w3.org/2000/svg" viewBox="0 0 89 89">
   <path fill="#808080" d="m66.241249,0.5c0.528922,0 1.58625,0 2.379375,0.088125c1.93875,0 4.494375,0.17625 5.64,0.440625c1.7625,0.3525 3.436875,0.88125 4.75875,1.58625c1.674375,0.793125 3.084375,1.850625 4.40625,3.1725c1.23375,1.23375 2.29125,2.64375 3.084375,4.318125c0.705,1.321875 1.23375,2.99625 1.58625,4.75875c0.264375,1.145625 0.440625,3.70125 0.52875,5.64l0,45.737046c0,0.52875 0,1.58625 -0.088125,2.379375c0,1.93875 -0.17625,4.494375 -0.440625,5.64c-0.3525,1.7625 -0.88125,3.436875 -1.58625,4.75875c-0.793125,1.674375 -1.850625,3.084375 -3.1725,4.40625c-1.23375,1.23375 -2.64375,2.29125 -4.318125,3.084375c-1.321875,0.705 -2.99625,1.23375 -4.75875,1.58625c-1.145625,0.264375 -3.70125,0.440625 -5.64,0.52875l-45.736874,0c-0.52875,0 -1.58625,0 -2.379375,-0.088125c-1.93875,0 -4.494375,-0.17625 -5.64,-0.440625c-1.7625,-0.3525 -3.436875,-0.88125 -4.75875,-1.58625c-1.674375,-0.793125 -3.084375,-1.850625 -4.40625,-3.1725c-1.23375,-1.23375 -2.29125,-2.64375 -3.084375,-4.318125c-0.705,-1.321875 -1.23375,-2.99625 -1.58625,-4.75875c-0.264375,-1.145625 -0.440625,-3.70125 -0.52875,-5.64l0,-45.737046c0,-0.52875 0,-1.58625 0.088125,-2.379375c0,-1.93875 0.17625,-4.494375 0.440625,-5.64c0.3525,-1.7625 0.88125,-3.436875 1.58625,-4.75875c0.793125,-1.674375 1.850625,-3.084375 3.1725,-4.40625c1.23375,-1.23375 2.64375,-2.29125 4.318125,-3.084375c1.321875,-0.705 2.99625,-1.23375 4.75875,-1.58625c1.145625,-0.264375 3.701078,-0.440625 5.64,-0.52875l45.736874,0zm1.496748,21.095438c-5.930709,-5.935701 -13.817896,-9.206136 -22.221097,-9.209579c-17.314325,0 -31.406235,14.086402 -31.41312,31.400899c-0.002238,5.534663 1.44408,10.937483 4.192994,15.699331l-4.456509,16.273004l16.652527,-4.366663c4.58818,2.501752 9.753992,3.820012 15.011543,3.82225l0.012909,0c17.312776,0 31.405718,-14.088296 31.412775,-31.402792c0.00327,-8.39098 -3.260969,-16.280749 -9.192023,-22.21645zm-22.220925,48.315391l-0.010499,0c-4.685083,-0.001893 -9.280148,-1.259912 -13.288802,-3.638082l-0.953368,-0.565756l-9.881876,2.591426l2.637726,-9.631615l-0.621006,-0.987275c-2.613457,-4.155817 -3.99368,-8.958973 -3.991787,-13.890703c0.00568,-14.391053 11.718387,-26.099285 26.120112,-26.099285c6.973751,0.002754 13.529081,2.721376 18.458573,7.654827c4.929492,4.933451 7.642778,11.491362 7.640196,18.465457c-0.006024,14.392086 -11.718387,26.101007 -26.109268,26.101007zm14.321517,-19.548087c-0.784863,-0.392776 -4.643774,-2.291078 -5.363404,-2.552871c-0.719458,-0.261793 -1.242528,-0.392776 -1.76577,0.392776c-0.523414,0.785552 -2.027563,2.552871 -2.4854,3.07663c-0.457837,0.523586 -0.915674,0.589164 -1.700537,0.196216c-0.785035,-0.392604 -3.313982,-1.221185 -6.311953,-3.89454c-2.333247,-2.080404 -3.908653,-4.650143 -4.36649,-5.435694c-0.457837,-0.785552 -0.04871,-1.21017 0.344238,-1.601396c0.353016,-0.351295 0.784863,-0.916362 1.177295,-1.374543c0.392432,-0.458181 0.523242,-0.785552 0.784863,-1.309138c0.261621,-0.523586 0.130811,-0.98194 -0.065405,-1.374716c-0.196216,-0.392776 -1.765942,-4.254785 -2.419995,-5.825889c-0.637013,-1.529967 -1.284181,-1.322908 -1.765942,-1.347004c-0.457321,-0.02272 -0.981079,-0.027539 -1.504321,-0.027539c-0.523414,0 -1.373511,0.196388 -2.093141,0.981768c-0.719458,0.785552 -2.747021,2.684026 -2.747021,6.546035c0,3.862009 2.812427,7.593208 3.204858,8.116966c0.392604,0.523759 5.534835,8.449156 13.408425,11.847993c1.872656,0.808444 3.334636,1.291066 4.474581,1.65286c1.880229,0.597081 3.591438,0.512915 4.943778,0.310847c1.507936,-0.225304 4.643774,-1.898302 5.297999,-3.731027c0.653881,-1.832897 0.653881,-3.404 0.457665,-3.731199c-0.196044,-0.327371 -0.719286,-0.523759 -1.504321,-0.916534z"/>
</svg>