<svg xmlns="http://www.w3.org/2000/svg" xml:space="preserve" width="144px" height="85px" fill-rule="evenodd" clip-rule="evenodd" viewBox="0 0 144 85" xmlns:xlink="http://www.w3.org/1999/xlink">
  <g>
   <path d="M0.31 0.96l24.69 0 19.16 50.96 20.28 -50.96 79.36 0 0 18.18 -13.22 14.39 -22.73 -0.02c-1.43,-0.12 -2.04,-1.2 -0.9,-2.65l9.02 -9.03c1.02,-0.95 1.63,-2.85 -0.41,-2.9l-35.42 0.05 -27.63 65.82 -18.72 0 -33.48 -83.84z"/>
   <path d="M87.8 52.68l24.87 0c1.45,0.08 1.25,1.5 0.02,2.73l-8.59 9.19c-0.58,0.7 -0.59,1.35 0.24,1.45l39.21 0.01 0 19.18 -68.13 0 0 -18.34 12.38 -14.22z"/>
 </g>
</svg>
