<svg width="235" height="148" xmlns="http://www.w3.org/2000/svg" viewBox="0 0 235 148">
   <path fill="#999" fill-rule="evenodd" clip-rule="evenodd" d="m24.20879,1.889682c-12.202961,0 -22.200271,8.710649 -22.200271,19.343136l0,106.387247c0,10.632438 9.997309,19.343136 22.200271,19.343136l188.7023,0c12.202961,0 22.200271,-8.710698 22.200271,-19.343136l0,-106.387247c0,-10.632487 -9.997309,-19.343136 -22.200271,-19.343136l-188.7023,0zm0,9.671568l188.7023,0c1.561373,0 3.002587,0.27402 4.33599,0.755591l-90.708918,68.683123c-5.051339,3.821962 -11.087176,3.822204 -16.129884,0l-90.535478,-68.683123c1.333404,-0.481572 2.774618,-0.755591 4.33599,-0.755591zm-10.926696,8.61374l89.84172,68.07865c8.835402,6.697077 21.861328,6.686438 30.698812,0l90.01516,-68.07865c0.043207,0.35543 0.17344,0.690405 0.17344,1.057828l0,106.387247c0,5.441708 -4.854644,9.671568 -11.100135,9.671568l-188.7023,0c-6.245491,0 -11.100135,-4.22986 -11.100135,-9.671568l0,-106.387247c0,-0.367423 0.130149,-0.702398 0.17344,-1.057828z"/>
</svg>