<svg width="186" height="82" xmlns="http://www.w3.org/2000/svg" viewBox="0 0 186 82">
  <g stroke="null" transform="rotate(-90.0279769897461 92.65796661376953,41.006607055664055) ">
    <path stroke="null" d="m110.702852,106.41931c-1.127812,0 -2.255611,0.451125 -3.157861,1.353362l-14.887018,14.88703l-14.88703,-14.88703c-0.902249,-0.902237 -2.030049,-1.353362 -3.157861,-1.353362s-2.255599,0.451125 -3.157849,1.353362c-1.804487,1.804487 -1.804487,4.511223 0,6.315709l18.044879,18.044879c1.804487,1.804487 4.511223,1.804487 6.315709,0l18.044879,-18.044879c1.804487,-1.804487 1.804487,-4.511223 0,-6.315709c-0.902237,-0.902237 -2.030049,-1.353362 -3.157849,-1.353362z"/>
   <path stroke="null" d="m113.860701,82.960959c-0.902237,-0.902237 -2.030049,-1.353362 -3.157849,-1.353362s-2.255611,0.451125 -3.157861,1.353362l-14.887018,14.88703l-14.88703,-14.88703c-0.902249,-0.902237 -2.030049,-1.353362 -3.157861,-1.353362s-2.255599,0.451125 -3.157849,1.353362c-1.804487,1.804487 -1.804487,4.511223 0,6.315709l18.044879,18.044879c1.804487,1.804487 4.511223,1.804487 6.315709,0l18.044879,-18.044879c1.804487,-1.804487 1.804487,-4.511223 0,-6.315709z"/>
   <g stroke="null" transform="matrix(-1.0156514644622803,0,0,-1.0156514644622803,183.26729239212,19.663348894806873) " id="svg_10">
    <path stroke="null" d="m89.213017,70.040519c21.986419,0 39.975308,-17.988888 39.975308,-39.975308l0,-39.975308c0,-21.986419 -17.988888,-39.975308 -39.975308,-39.975308s-39.97532,17.988888 -39.97532,39.975308l0,39.975308c0,21.986419 17.988901,39.975308 39.97532,39.975308zm-31.091913,-79.950616c0,-17.100555 13.991358,-31.091913 31.091913,-31.091913s31.091901,13.991358 31.091901,31.091913l0,39.975308c0,17.100555 -13.991358,31.091913 -31.091901,31.091913s-31.091913,-13.991358 -31.091913,-31.091913l0,-39.975308z"/>
    <path stroke="null" d="m89.213017,45.611174c2.442926,0 4.441691,-1.998765 4.441691,-4.441704l0,-13.325111c0,-2.442926 -1.998765,-4.441691 -4.441691,-4.441691s-4.441704,1.998765 -4.441704,4.441691l0,13.325111c0,2.442938 1.998765,4.441704 4.441704,4.441704z"/>
   </g>
  </g>
</svg>